<svg xmlns="http://www.w3.org/2000/svg"  viewBox="0 0 64 64" width="128px" height="128px"><path d="M 32.509766 7.9960938 C 31.834805 7.9805521 31.163432 7.9936282 30.496094 8.0351562 C 21.153354 8.6165494 12.721322 14.723034 9.4648438 23.726562 C 5.2260874 35.447682 10.537809 47.773246 20.712891 53.1875 A 1.0001 1.0001 0 1 0 21.652344 51.421875 C 12.331425 46.462129 7.4404595 35.205131 11.345703 24.40625 C 14.750013 14.993997 24.37332 9.0201742 34.324219 10.119141 C 47.627389 11.588961 56.305724 24.127962 53.470703 36.802734 C 50.874266 48.409455 39.577725 55.725448 27.980469 53.5625 L 27.994141 37.396484 C 27.99755 33.95272 29.49207 30.728106 32 28.408203 C 34.507551 30.730754 36 33.957382 36 37.402344 L 36 48 L 31 48 A 1.0001 1.0001 0 1 0 31 50 L 37 50 A 1.0001 1.0001 0 0 0 38 49 L 38 37.402344 C 38 33.44382 36.348558 29.69135 33.494141 26.998047 C 33.97796 26.542237 34.609569 25.916803 35.248047 25.199219 C 36.55211 23.733582 38 21.984146 38 20 C 38 16.698375 35.301625 14 32 14 C 28.698375 14 26 16.698375 26 20 C 26 21.984146 27.44789 23.733582 28.751953 25.199219 C 29.390822 25.917244 30.023885 26.542171 30.507812 26.998047 C 27.652767 29.688354 25.998055 33.437982 25.994141 37.394531 L 25.980469 54.443359 A 1.0001 1.0001 0 0 0 26.761719 55.419922 C 39.685124 58.310862 52.530893 50.163644 55.421875 37.240234 C 58.508854 23.439007 48.989799 9.7270388 34.542969 8.1308594 C 33.863275 8.0557947 33.184726 8.0116354 32.509766 7.9960938 z M 32 16 C 34.220375 16 36 17.779625 36 20 C 36 20.776854 34.94789 22.526981 33.751953 23.871094 C 32.878171 24.853138 32.409563 25.234296 32 25.599609 C 31.590437 25.234296 31.121829 24.853138 30.248047 23.871094 C 29.05211 22.526981 28 20.776854 28 20 C 28 17.779625 29.779625 16 32 16 z"/></svg>